<?xml version="1.0" standalone="no"?>
<!DOCTYPE svg PUBLIC "-//W3C//DTD SVG 20010904//EN"
 "http://www.w3.org/TR/2001/REC-SVG-20010904/DTD/svg10.dtd">
<svg version="1.0" xmlns="http://www.w3.org/2000/svg"
 width="512.000000pt" height="512.000000pt" viewBox="0 0 512.000000 512.000000"
 preserveAspectRatio="xMidYMid meet">
<metadata>
Created by potrace 1.14, written by Peter Selinger 2001-2017
</metadata>
<g transform="translate(0.000000,512.000000) scale(0.100000,-0.100000)"
fill="#000000" stroke="none">
<path d="M2286 4895 c-44 -8 -84 -11 -88 -9 -4 3 -8 1 -8 -4 0 -5 -6 -9 -12
-9 -7 0 -25 -3 -40 -7 -16 -3 -40 -8 -55 -11 -14 -3 -34 -10 -45 -16 -10 -5
-18 -8 -18 -5 0 3 -44 -11 -97 -31 -54 -19 -112 -40 -130 -46 -18 -5 -29 -15
-26 -20 4 -6 0 -8 -10 -4 -10 4 -17 1 -17 -5 0 -6 -3 -8 -6 -5 -7 7 -64 -22
-76 -38 -4 -5 -8 -6 -8 -1 0 5 -9 1 -21 -10 -12 -10 -24 -18 -28 -17 -3 1 -49
-26 -101 -60 -101 -65 -110 -72 -141 -99 -10 -10 -21 -18 -23 -18 -16 0 -211
-191 -276 -270 -25 -30 -50 -60 -55 -66 -6 -6 -28 -37 -50 -70 -22 -32 -43
-61 -46 -64 -3 -3 -14 -21 -24 -40 -10 -19 -21 -37 -25 -40 -25 -17 -213 -460
-195 -460 2 0 -2 -18 -10 -40 -8 -22 -14 -43 -14 -45 0 -3 -2 -18 -5 -33 -11
-51 -16 -77 -21 -112 -3 -19 -8 -51 -11 -70 -11 -67 -15 -378 -5 -385 7 -3 7
-15 1 -29 -5 -13 -6 -26 -4 -29 3 -3 7 -22 9 -44 5 -46 13 -95 30 -178 24
-118 72 -263 133 -395 8 -19 16 -40 18 -47 1 -7 12 -26 23 -42 12 -16 21 -32
21 -36 0 -11 73 -130 82 -133 4 -2 8 -8 8 -14 0 -9 64 -103 80 -118 3 -3 18
-23 35 -45 35 -47 236 -250 283 -285 18 -14 43 -33 55 -43 53 -45 215 -146
270 -170 15 -6 27 -15 27 -20 0 -4 5 -5 10 -2 5 3 10 1 10 -5 0 -6 5 -8 10 -5
5 3 10 1 10 -4 0 -6 3 -10 8 -9 4 1 30 -9 57 -22 28 -13 53 -24 58 -25 4 -2 9
-4 12 -5 3 -1 8 -3 13 -4 4 -1 23 -7 42 -15 19 -7 44 -16 55 -21 47 -17 93
-30 111 -30 11 0 25 -5 32 -12 7 -7 12 -9 12 -6 0 3 28 -1 63 -9 62 -15 72
-16 177 -29 30 -3 61 -11 68 -16 6 -6 12 -6 12 -1 0 5 9 9 19 9 11 0 18 -3 16
-7 -7 -10 189 -8 202 2 7 7 14 6 18 -1 5 -8 11 -7 23 2 12 10 14 10 8 0 -4 -6
-2 -12 3 -12 6 0 11 4 11 9 0 5 8 8 18 6 9 -1 21 0 27 3 5 3 21 7 35 8 44 3
135 16 141 20 7 4 77 17 97 17 6 0 12 3 12 7 0 3 9 6 21 7 22 2 124 33 174 54
17 7 35 13 40 14 32 5 295 136 295 147 0 4 5 8 11 8 13 0 155 93 181 118 28
27 48 43 48 38 0 -19 214 195 300 300 57 70 156 220 190 289 8 17 20 37 27 46
8 9 16 27 18 39 3 13 8 26 12 29 5 3 19 33 31 66 13 33 30 76 38 95 9 20 16
42 17 50 2 8 6 20 9 26 4 6 9 21 12 35 3 13 9 39 15 57 5 18 10 35 10 37 1 3
1 6 2 8 0 1 2 10 4 19 2 9 8 39 14 68 11 50 23 134 25 175 1 11 6 23 11 27 6
5 4 8 -5 8 -13 0 -13 1 0 10 13 9 13 11 0 20 -8 5 -10 10 -3 10 17 0 18 256 1
263 -10 4 -10 6 1 6 11 1 11 4 0 18 -8 9 -9 14 -3 10 6 -3 11 0 11 8 0 8 -3
12 -7 10 -6 -4 -11 34 -14 117 0 21 -4 38 -8 38 -5 0 -8 14 -8 31 0 16 -3 28
-7 26 -5 -3 -8 9 -7 25 0 17 -5 48 -13 70 -7 21 -15 49 -17 61 -3 12 -5 22 -6
22 -1 0 -3 7 -5 15 -3 15 -40 120 -55 155 -61 147 -219 425 -242 425 -4 0 -8
5 -8 11 0 9 -53 80 -95 125 -71 78 -113 120 -176 174 -41 36 -76 67 -79 70
-15 15 -120 90 -126 90 -4 0 -17 9 -28 19 -22 20 -51 37 -183 108 -46 24 -83
40 -83 36 0 -4 -4 -3 -8 3 -4 5 -34 21 -67 33 -33 13 -69 27 -80 32 -24 10
-152 49 -180 55 -18 3 -72 16 -85 19 -12 3 -78 16 -110 21 -80 13 -505 12
-584 -1z"/>
<path d="M2873 741 c-30 -19 -40 -35 -49 -86 -7 -42 21 -89 90 -150 70 -62 85
-87 66 -110 -19 -23 -39 -18 -71 16 l-30 32 -35 -19 c-20 -10 -37 -21 -39 -24
-9 -14 39 -70 72 -85 56 -27 140 -15 175 24 33 37 42 69 34 119 -6 29 -23 52
-87 112 -43 42 -79 81 -79 87 0 23 41 26 64 4 28 -26 34 -26 71 4 29 24 29 24
10 46 -45 49 -136 64 -192 30z"/>
<path d="M1174 530 l0 -220 28 0 28 0 0 105 0 105 89 0 c80 0 89 2 86 18 -2 9
-4 20 -4 25 -1 4 -39 7 -86 7 l-85 0 0 65 0 65 88 0 c86 0 89 1 87 23 -2 21
-5 22 -116 25 l-115 3 0 -221z"/>
<path d="M1485 570 c1 -163 3 -183 21 -208 45 -60 148 -81 211 -42 57 35 66
66 68 245 1 88 0 166 -3 173 -2 6 -15 12 -28 12 -13 0 -25 -6 -25 -12 -1 -7
-2 -78 -4 -158 -3 -186 -1 -174 -29 -201 -28 -27 -61 -33 -99 -18 -46 19 -51
41 -52 219 l0 165 -31 3 -31 3 2 -181z"/>
<path d="M1883 530 l0 -220 114 0 c113 0 114 0 111 23 -3 20 -9 22 -84 25
l-81 3 1 194 1 195 -31 0 -31 0 0 -220z"/>
<path d="M2183 530 l0 -220 114 0 113 0 0 25 c0 25 -1 25 -83 25 l-83 0 1 183
c0 100 -1 188 -3 195 -2 6 -17 12 -32 12 l-27 0 0 -220z"/>
<path d="M2440 744 c0 -3 31 -56 69 -118 l70 -111 -1 -80 c0 -131 -1 -125 30
-125 l28 0 -1 103 -1 102 43 68 c24 37 43 69 43 72 0 2 11 21 25 41 32 48 32
54 -8 54 -30 0 -36 -6 -81 -81 l-49 -82 -51 81 c-47 75 -54 82 -83 82 -18 0
-33 -3 -33 -6z"/>
<path d="M3168 608 c-2 -79 -2 -178 0 -220 l3 -78 49 0 50 0 0 95 0 96 63 -3
62 -3 1 -80 c1 -44 2 -86 3 -92 1 -9 18 -13 49 -13 l48 0 -1 220 0 221 -50 -3
-50 -3 1 -82 0 -83 -63 0 -63 0 0 85 0 85 -49 0 -50 0 -3 -142z"/>
<path d="M3599 748 c-1 -2 -3 -101 -3 -220 l-2 -218 48 0 48 0 0 220 0 220
-45 0 c-25 0 -46 -1 -46 -2z"/>
<path d="M3780 531 l0 -221 49 0 48 0 0 90 c0 50 2 92 4 94 2 2 25 6 51 9 26
3 58 13 71 22 71 46 58 185 -20 212 -15 6 -67 11 -115 12 l-88 2 0 -220z m164
117 c13 -19 14 -25 2 -43 -18 -27 -66 -33 -67 -8 0 10 -2 30 -3 46 -1 23 2 27
26 27 16 0 33 -8 42 -22z"/>
<path d="M3393 97 c-1 -21 -14 -80 -19 -89 -3 -4 34 -8 82 -8 l87 0 -44 31
c-24 17 -49 36 -54 43 -19 21 -52 35 -52 23z"/>
</g>
</svg>
